<svg width="122" height="28" viewBox="0 0 122 28" fill="none" xmlns="http://www.w3.org/2000/svg">
<path d="M16.5565 4.42329H9.8887V22H6.69606V4.42329H0V1.57534H16.5565V4.42329Z" fill="black"/>
<path d="M32.1018 22H28.994V13.5712C28.994 12.2096 28.7491 11.1932 28.2594 10.5219C27.7697 9.85068 27.0822 9.51507 26.1969 9.51507C25.6507 9.51507 25.0856 9.66849 24.5017 9.97534C23.9178 10.2822 23.3998 10.7041 22.9477 11.2411C22.4957 11.7589 22.1661 12.363 21.9589 13.0534V22H18.851V1H21.9589V9.97534C22.5239 8.9589 23.2962 8.16301 24.2757 7.58767C25.2551 6.99315 26.3099 6.69589 27.44 6.69589C28.363 6.69589 29.1258 6.8589 29.7286 7.18493C30.3313 7.51096 30.8022 7.96164 31.1412 8.53699C31.4991 9.09315 31.744 9.74521 31.8758 10.4932C32.0265 11.2219 32.1018 11.9986 32.1018 12.8233V22Z" fill="black"/>
<path d="M35.7092 22V13.6096C36.594 14.4012 37.9324 14.4012 38.8171 13.6096V22H35.7092Z" fill="black"/>
<path d="M55.8027 22H52.6948V13.5712C52.6948 12.1712 52.4688 11.1452 52.0168 10.4932C51.5835 9.8411 50.9337 9.51507 50.0673 9.51507C49.4645 9.51507 48.8618 9.66849 48.2591 9.97534C47.6751 10.2822 47.1478 10.7041 46.6769 11.2411C46.206 11.7589 45.8669 12.363 45.6597 13.0534V22H42.5519V6.95479H45.3772V9.97534C45.7539 9.30411 46.2436 8.72877 46.8464 8.24931C47.468 7.75068 48.1649 7.36712 48.9371 7.09863C49.7094 6.83014 50.5287 6.69589 51.3952 6.69589C52.2805 6.69589 53.0056 6.8589 53.5707 7.18493C54.1546 7.51096 54.6067 7.96164 54.9269 8.53699C55.2659 9.09315 55.4919 9.74521 55.6049 10.4932C55.7368 11.2219 55.8027 11.9986 55.8027 12.8233V22Z" fill="black"/>
<path d="M69.6944 22L64.9478 15.0671L62.518 17.426V22H59.4101V1H62.518V14.2329L69.3553 6.98356H72.6892L66.9538 13.2836L73 22H69.6944Z" fill="black"/>
<path d="M75.232 22V4.96H86.32V6.064H76.456V12.832H84.832V13.888H76.456V22H75.232ZM94.0885 10.6C92.9685 10.632 91.9845 10.968 91.1365 11.608C90.3045 12.232 89.7205 13.096 89.3845 14.2V22H88.1845V9.52H89.3365V12.592C89.7685 11.712 90.3445 11 91.0645 10.456C91.7845 9.896 92.5445 9.576 93.3445 9.496C93.5045 9.48 93.6485 9.472 93.7765 9.472C93.9045 9.472 94.0085 9.472 94.0885 9.472V10.6ZM96.3642 22V9.52H97.5642V22H96.3642ZM96.3642 6.688V4.48H97.5642V6.688H96.3642ZM119.669 22H118.469V15.04C118.469 13.456 118.221 12.288 117.725 11.536C117.245 10.784 116.501 10.408 115.493 10.408C114.469 10.408 113.557 10.776 112.757 11.512C111.973 12.232 111.421 13.16 111.101 14.296V22H109.901V15.04C109.901 13.44 109.661 12.272 109.181 11.536C108.701 10.784 107.957 10.408 106.949 10.408C105.925 10.408 105.013 10.768 104.213 11.488C103.429 12.192 102.869 13.12 102.533 14.272V22H101.333V9.52H102.461V12.496C102.989 11.472 103.669 10.688 104.501 10.144C105.333 9.584 106.245 9.304 107.237 9.304C108.277 9.304 109.125 9.616 109.781 10.24C110.453 10.848 110.853 11.664 110.981 12.688C111.573 11.568 112.277 10.728 113.093 10.168C113.909 9.592 114.837 9.304 115.877 9.304C116.565 9.304 117.141 9.432 117.605 9.688C118.085 9.928 118.477 10.288 118.781 10.768C119.101 11.232 119.325 11.808 119.453 12.496C119.597 13.184 119.669 13.96 119.669 14.824V22Z" fill="black"/>
<circle cx="37" cy="10" r="2" fill="black"/>
</svg>
